<?xml version="1.0" encoding="iso-8859-1"?>
<!-- Generator: Adobe Illustrator 15.1.0, SVG Export Plug-In . SVG Version: 6.00 Build 0)  -->
<!DOCTYPE svg PUBLIC "-//W3C//DTD SVG 1.1//EN" "http://www.w3.org/Graphics/SVG/1.1/DTD/svg11.dtd">
<svg version="1.1" id="Layer_1" xmlns="http://www.w3.org/2000/svg" xmlns:xlink="http://www.w3.org/1999/xlink" x="0px" y="0px"
	 width="5px" height="55px" viewBox="0 0 5 55" style="enable-background:new 0 0 5 55;" xml:space="preserve">
<path style="fill:#333;" d="M2.5,0C3.881,0,5,1.119,5,2.5S3.881,5,2.5,5S0,3.881,0,2.5S1.119,0,2.5,0z"/>
<path style="fill:#333;" d="M2.5,10C3.881,10,5,11.119,5,12.5S3.881,15,2.5,15S0,13.881,0,12.5S1.119,10,2.5,10z"/>
<path style="fill:#333;" d="M2.5,20C3.881,20,5,21.119,5,22.5S3.881,25,2.5,25S0,23.881,0,22.5S1.119,20,2.5,20z"/>
<path style="fill:#333;" d="M2.5,30C3.881,30,5,31.119,5,32.5S3.881,35,2.5,35S0,33.881,0,32.5S1.119,30,2.5,30z"/>
<path style="fill:#333;" d="M2.5,40C3.881,40,5,41.119,5,42.5S3.881,45,2.5,45S0,43.881,0,42.5S1.119,40,2.5,40z"/>
<path style="fill:#333;" d="M2.5,50C3.881,50,5,51.119,5,52.5S3.881,55,2.5,55S0,53.881,0,52.5S1.119,50,2.5,50z"/>
</svg>
